<svg width="72" height="72" xmlns="http://www.w3.org/2000/svg">

 <g>
  <title>background</title>
  <rect fill="none" id="canvas_background" height="402" width="582" y="-1" x="-1"/>
 </g>
 <g>
  <title>Layer 1</title>
  <g id="svg_1">
   <path fill="#f1cbff" id="svg_2" d="m37.910999,11.201995c0,-0.552 -0.448,-1 -1,-1c-5.499,0 -9.973,4.474 -9.973,9.973c0,0.553 0.447,1 1,1c0.552,0 1,-0.447 1,-1c0,-4.396 3.577,-7.973 7.973,-7.973c0.552,0 1,-0.447 1,-1z"/>
   <path fill="#f1cbff" id="svg_3" d="m27.578999,23.303995c-0.189,0.19 -0.29,0.45 -0.29,0.71c0,0.26 0.101,0.521 0.29,0.71c0.19,0.19 0.44,0.29 0.71,0.29c0.261,0 0.521,-0.099 0.7,-0.29c0.191,-0.189 0.3,-0.439 0.3,-0.71c0,-0.26 -0.11,-0.52 -0.3,-0.71c-0.37,-0.37 -1.04,-0.37 -1.41,0z"/>
   <path fill="#f1cbff" id="svg_4" d="m45.842999,39.780995c4.266,-5.837 6.919,-14.534 6.919,-20.077c0,-9.059 -7.371,-16.428 -16.429,-16.428c-9.059,0 -16.428,7.369 -16.428,16.428c0,5.55 2.659,14.261 6.933,20.098c-8.746,3.788 -14.671,12.658 -14.671,22.423c0,7.424 18.434,8 24.083,8c5.648,0 24.083,-0.576 24.083,-7.998c0,-9.735 -5.85,-18.607 -14.49,-22.446zm-9.51,-32.505c6.853,0 12.429,5.575 12.429,12.428c0,7.763 -6.39,22.2 -12.429,22.2c-6.04,0 -12.428,-14.436 -12.428,-22.2c0,-6.853 5.575,-12.428 12.428,-12.428zm-0.083,58.949c-13.908,0 -20.083,-2.897 -20.083,-4c0,-8.49 5.334,-16.181 13.111,-19.115c2.111,1.965 4.527,2.994 7.055,2.994c2.47,0 4.873,-1.049 7.015,-3.049c7.702,2.971 12.985,10.684 12.985,19.17c0,1.102 -6.176,4 -20.083,4z"/>
  </g>
 </g>
</svg>